PathFileType	4	(X/Y/Z)	C:\Users\WrightLab\Desktop\Jo\P2_Trial8.trc
DataRate	CameraRate	NumFrames	NumMarkers	Units	OrigDataRate	OrigDataStartFrame	OrigNumFrames
100.00	100.00	       18	19	mm	100.00	583	       932
Frame#	Time	Headset_Front			Headset_Back			Headset_Left			Headset_Right			Left_Shoulder			Right_Shoulder			Sternum			C7			Left Elbow			Right Elbow			Left Wrist			Right Wrist			Left ASIS			Right ASIS			S2			Left Knee			Right Knee			Left Ankle			Right Ankle			
		X1	Y1	Z1	X2	Y2	Z2	X3	Y3	Z3	X4	Y4	Z4	X5	Y5	Z5	X6	Y6	Z6	X7	Y7	Z7	X8	Y8	Z8	X9	Y9	Z9	X10	Y10	Z10	X11	Y11	Z11	X12	Y12	Z12	X13	Y13	Z13	X14	Y14	Z14	X15	Y15	Z15	X16	Y16	Z16	X17	Y17	Z17	X18	Y18	Z18	X19	Y19	Z19	

583	5.820	-399.89178	1418.41504	-18.29920	-445.51639	1688.73450	123.30500	-538.96460	1552.23889	69.47440	-311.33707	1528.83289	36.13276	-547.95636	1491.58179	288.53879	-269.55450	1426.20483	126.11642	-452.79425	1337.08423	169.74339	-343.08981	1459.91614	296.55017	-649.72430	1230.54517	410.95105	-173.52036	1102.45618	142.14719	-752.09149	1270.58264	299.19534	-181.25734	929.05255	-6.19583	-530.62311	1064.50964	209.85069	-422.59827	1039.52283	141.82301	-356.80228	982.78302	413.72147	-592.99915	475.32407	395.77533	-269.95853	545.66669	211.05962	-586.30792	119.18798	375.06784	-339.49994	113.50456	211.29588	
584	5.830	-400.54300	1418.48047	-19.40514	-446.76825	1689.04907	122.71472	-539.25818	1551.89832	69.16782	-311.99213	1529.07910	34.51437	-548.64905	1491.21802	287.71289	-270.87085	1425.81982	126.52508	-453.58392	1337.15540	168.85693	-343.39719	1459.78845	295.69476	-652.39850	1230.82385	410.70941	-174.11633	1102.29797	142.48149	-752.85065	1270.19275	298.77139	-181.45792	929.22516	-6.28381	-530.77814	1064.36084	208.89412	-423.14536	1039.34290	141.08702	-357.45410	982.87616	413.29404	-593.02344	476.01352	395.71375	-270.19604	545.81720	210.31371	-587.02002	118.99528	375.50891	-339.20724	113.31889	210.16707	
585	5.840	-401.31775	1418.92651	-20.60404	-447.23975	1689.06189	122.16264	-540.14191	1551.98633	68.57188	-312.78729	1529.23413	34.08596	-549.38361	1491.12183	287.23355	-271.37500	1425.94336	126.57301	-454.05981	1337.06677	168.30496	-344.28604	1459.85815	295.16046	-652.72369	1230.22620	409.68652	-174.61432	1102.42615	142.29329	-753.30652	1269.50342	297.99475	-181.79514	929.86951	-6.10575	-530.88898	1064.43188	207.92453	-424.18399	1039.78955	139.97717	-358.21432	982.98291	412.51675	-593.13953	475.89862	394.99365	-270.02347	546.06732	208.91115	-587.45514	118.52393	375.75064	-339.52701	113.68588	208.42949	
586	5.850	-401.64566	1418.90027	-20.60773	-448.21799	1689.27502	121.52446	-540.87360	1552.08716	68.22615	-313.51099	1529.29565	34.19558	-549.90509	1491.21667	286.60388	-272.02600	1425.98999	124.19414	-454.51950	1337.03613	167.54802	-345.31900	1460.08167	294.73370	-653.24963	1230.10388	409.19876	-174.91171	1102.60291	142.36139	-753.72198	1269.12988	297.17700	-181.70671	930.46954	-5.81357	-530.98474	1064.29382	206.74124	-424.27777	1039.98096	138.39781	-359.00928	982.59821	411.46173	-593.76178	475.35791	394.06647	-270.82474	546.08514	208.58728	-588.14697	118.50417	376.06418	-339.94089	114.25730	207.19716	
587	5.860	-402.12927	1418.81555	-20.89945	-448.76379	1689.19983	121.01038	-540.94659	1552.04321	67.82046	-313.96954	1529.30725	33.69307	-550.70178	1491.38257	285.83926	-272.44586	1426.02332	123.56760	-455.16306	1337.36646	166.82353	-345.99692	1459.90100	294.10831	-654.23212	1229.92664	408.87866	-175.41261	1102.73840	142.51096	-754.47247	1269.28162	296.57465	-181.68178	931.10388	-5.44082	-531.22748	1063.94153	206.33360	-424.02020	1040.37854	137.71515	-359.40091	982.51361	410.69290	-594.16217	475.21973	393.41302	-271.38031	546.18964	207.00795	-589.35883	118.41348	376.83267	-339.97867	114.02471	206.35381	
588	5.870	-402.90567	1418.91248	-21.41691	-450.17288	1689.38074	120.59647	-542.03217	1552.19360	66.90924	-314.58966	1529.28516	34.13142	-551.45966	1491.29321	285.20285	-273.10464	1426.35339	123.51527	-455.49518	1337.23779	165.47737	-346.30460	1459.67529	293.27374	-654.75244	1229.32813	408.02319	-176.07349	1103.10718	143.06651	-754.82172	1268.99475	295.79916	-181.80688	932.53607	-5.65043	-531.86536	1064.22522	204.65599	-423.89651	1040.08813	137.21661	-359.84940	982.39539	409.91629	-594.62085	475.04602	392.75620	-271.06668	546.27692	206.24210	-590.59625	114.69823	370.77356	-339.74084	113.38651	206.33826	
589	5.880	-403.61703	1419.24377	-22.51577	-450.52902	1689.24438	120.06374	-542.81055	1552.46802	66.08759	-315.48923	1530.08655	31.11625	-552.07800	1491.04297	284.49176	-273.51370	1426.40576	122.89241	-456.07480	1337.38098	165.00290	-346.64127	1459.46411	292.50168	-655.18372	1229.13245	407.16284	-176.49147	1103.23096	143.70374	-759.10944	1270.78381	297.19962	-181.77783	933.85004	-5.60244	-532.51880	1064.46716	202.48413	-424.27316	1040.43506	136.00438	-360.11111	981.98645	408.37396	-595.34729	474.99042	391.96213	-271.22931	546.24493	205.84148	-590.95459	113.99161	369.60168	-340.33878	114.48892	205.57967	
590	5.890	-404.43231	1419.70215	-23.01386	-451.08041	1689.25049	119.76020	-542.96954	1552.28442	65.91839	-316.22675	1530.42798	29.98464	-553.04724	1491.00195	283.84360	-273.89447	1426.82568	121.48690	-456.54227	1337.18481	164.23035	-347.80331	1459.72131	292.05829	-655.80939	1228.76538	406.11261	-176.93753	1103.47559	143.77138	-757.37604	1269.44739	295.10620	-182.44400	935.62256	-5.96934	-532.98718	1064.26587	201.33400	-424.29507	1040.56860	134.35895	-360.26492	981.47229	407.09329	-595.58807	474.58701	390.99646	-270.84369	546.67352	204.49260	-591.93140	113.82485	371.79184	-339.65192	115.05773	203.38977	
591	5.900	-405.01651	1419.57397	-23.32590	-452.14053	1689.35474	119.52678	-544.37213	1552.59998	65.17087	-316.81149	1530.29321	30.94526	-553.78284	1490.97473	283.37634	-274.35663	1426.90198	120.46922	-457.00571	1337.20691	163.84189	-348.87833	1459.61926	291.67581	-656.77332	1228.26733	405.41135	-177.27258	1103.59631	143.77153	-758.55292	1269.52820	294.67172	-182.09888	938.46527	-5.68407	-533.08771	1063.98181	200.54315	-424.29474	1040.72302	133.56987	-360.71384	981.49963	406.16479	-595.68103	473.83115	389.88580	-269.30750	546.54877	203.30565	-592.33630	114.20477	371.73944	-340.12051	114.79202	202.53986	
592	5.910	-405.64890	1419.82898	-23.71137	-453.10321	1689.61414	119.18678	-544.92181	1552.31372	64.89016	-318.01019	1530.74219	30.71355	-553.94794	1490.41357	282.42715	-274.78333	1426.92444	119.84055	-457.68604	1337.34387	163.17412	-349.22278	1459.38684	290.91565	-657.60730	1228.02661	404.56400	-177.90044	1103.69043	145.41341	-759.44452	1269.26770	294.04706	-181.78816	940.67389	-5.99354	-532.95294	1064.15405	199.26332	-424.12921	1040.82483	133.07961	-361.34048	981.26263	405.31787	-596.02838	473.55649	389.33383	-269.21866	546.37634	202.28055	-592.69934	113.50153	370.54877	-340.33755	114.80981	200.84964	
593	5.920	-407.09821	1420.56201	-25.65706	-453.86258	1689.50012	118.87807	-546.63922	1552.35168	64.13459	-318.63562	1530.88464	30.42565	-554.68701	1490.25659	282.07916	-275.22610	1426.96863	119.23162	-458.36032	1337.34180	162.47054	-349.58990	1459.17114	290.10303	-658.10980	1227.68384	403.75058	-178.34398	1103.74182	146.58299	-759.82245	1269.01563	293.30194	-181.37027	944.41962	-6.52029	-533.03406	1063.98596	198.33200	-424.51102	1040.68079	132.16687	-361.64050	981.10352	404.17520	-596.39380	473.22852	388.72797	-268.99246	546.40192	201.16248	-593.10706	112.67583	369.22638	-340.47336	114.20455	201.64935	
594	5.930	-407.69034	1420.98120	-26.06825	-454.97565	1689.61902	118.69836	-547.37140	1552.78821	63.55413	-319.26413	1531.02014	30.11013	-555.10944	1490.06494	281.68924	-275.81747	1426.91174	118.25274	-458.53159	1337.20483	161.66190	-350.36322	1459.13403	289.53149	-658.43323	1227.37842	402.74167	-178.59128	1104.50110	147.76965	-760.21234	1268.90332	292.55206	-180.29356	948.20929	-6.53527	-533.83801	1064.23621	197.23030	-425.10635	1040.91443	129.78699	-361.92987	981.00531	403.03854	-596.76166	472.91891	388.11841	-268.97739	546.29041	199.93471	-594.05707	112.89632	369.78925	-340.29947	114.26443	201.24756	
595	5.940	-408.61780	1421.48169	-26.44908	-455.84006	1689.63989	118.76230	-548.21381	1553.02148	63.46112	-320.59442	1531.48987	29.79186	-555.58673	1489.71985	281.24326	-276.21692	1427.02673	117.43845	-459.35318	1337.43030	160.84706	-351.44751	1459.27808	289.17157	-659.10510	1226.78650	401.79382	-179.03302	1104.54541	149.10681	-760.99292	1269.20264	292.00217	-179.94734	951.66766	-6.72451	-534.06415	1064.04907	196.42575	-425.37970	1041.04419	129.13817	-362.70706	980.87524	401.67178	-596.94702	472.49930	387.20947	-268.63678	546.41974	198.85783	-594.85760	112.22440	370.55264	-339.80042	114.50242	200.08504	
596	5.950	-410.08069	1421.75378	-28.03056	-456.89459	1689.85535	118.76971	-548.26843	1552.87378	64.08450	-321.57257	1531.73621	30.15284	-556.03784	1489.57361	280.92975	-277.07498	1427.37988	116.54265	-459.73495	1337.35425	160.01265	-352.12213	1459.01196	288.51889	-659.44092	1226.38147	400.77316	-179.76611	1104.65320	151.36795	-761.23145	1269.11267	291.36551	-179.02557	956.31122	-7.31398	-534.28265	1063.81482	195.78154	-426.52072	1041.16797	127.23421	-362.56442	980.54224	400.18369	-597.27930	472.19907	385.87915	-268.80130	546.14160	197.88159	-595.66943	112.07893	371.52139	-339.62894	114.87406	199.29202	
597	5.960	-410.91663	1422.33142	-28.57525	-458.06122	1690.23120	118.76852	-549.71283	1553.07922	63.80354	-322.64011	1532.65051	27.29336	-556.67712	1489.43127	280.48117	-277.33331	1427.34119	116.66270	-460.71268	1337.71997	159.09042	-352.48138	1458.72925	287.64868	-660.11011	1225.97522	399.75345	-181.07571	1105.00696	153.15022	-762.70422	1269.84192	291.36975	-177.58748	961.38971	-7.36430	-535.15765	1064.06909	193.30623	-427.11197	1041.05164	126.39577	-362.61722	979.82446	398.74097	-598.28040	472.43082	383.61877	-268.72333	546.58655	197.33788	-596.03302	112.31519	372.61273	-339.26099	114.32043	199.50761	
598	5.970	-412.33591	1422.98596	-29.67527	-458.97153	1690.25220	118.71889	-550.44568	1553.19531	63.54148	-323.53088	1532.75879	27.82098	-557.41223	1489.15479	280.01019	-277.80399	1427.41675	114.92117	-461.14383	1337.92944	158.12784	-352.81781	1458.44507	286.73553	-660.96082	1225.33264	399.10706	-181.78494	1105.48987	154.56036	-763.74878	1270.24011	291.15540	-176.74953	966.44366	-8.01219	-535.54468	1063.75830	192.88789	-427.19849	1041.10938	125.23302	-362.30582	979.88098	397.31552	-600.60394	474.06555	381.32745	-268.41901	546.46497	195.99223	-596.30103	111.65054	373.48828	-339.42374	114.17115	199.40218	
599	5.980	-413.87869	1424.19727	-30.45264	-460.06235	1690.57593	118.62978	-552.24786	1553.79114	62.80077	-325.14508	1533.69824	25.90360	-558.45483	1488.89551	279.56943	-278.23907	1427.62488	113.98579	-461.71231	1337.71509	157.31578	-353.14664	1458.19751	285.85614	-661.40430	1224.90100	397.86987	-182.05505	1106.00793	156.11285	-764.13556	1270.21802	290.49783	-176.03078	971.87933	-8.82931	-536.35712	1063.33252	191.39415	-427.50964	1040.78857	124.70827	-363.00381	979.87128	395.68787	-598.75226	473.35608	377.32489	-268.32788	546.40637	195.09146	-596.51971	111.12798	372.81543	-339.09042	114.35909	198.80145	
600	5.990	-415.48792	1423.97412	-30.79844	-460.61765	1690.72778	118.43375	-553.05170	1554.83264	62.59098	-326.21466	1533.66479	27.25053	-559.25958	1488.85754	279.12119	-278.67526	1427.99780	113.36692	-462.40128	1337.78845	156.16273	-355.20108	1458.55566	285.67181	-662.47064	1225.09924	397.07391	-182.22084	1106.39734	158.22507	-765.31641	1270.75781	290.54065	-173.70287	977.22504	-10.46558	-536.58508	1063.21240	190.76239	-428.83398	1041.42554	122.12531	-363.09204	979.83752	394.36462	-599.28961	473.44998	372.69952	-268.50162	546.22766	194.03365	-597.26068	111.70132	373.90472	-339.27771	113.62151	198.95172	
